<svg width="50" height="50" viewBox="0 0 24 24" fill="none" xmlns="http://www.w3.org/2000/svg">
<g filter="url(#filter0_d)">
</g>
<path d="M17.25 5.9476H8.74609L8.66406 5.60889C8.57292 5.17609 8.36784 4.82327 8.04883 4.55042C7.72982 4.27757 7.35156 4.14114 6.91406 4.14114H5.57422C5.41016 4.14114 5.27344 4.1976 5.16406 4.3105C5.05469 4.4234 5 4.57394 5 4.76211C5 4.93147 5.05469 5.0726 5.16406 5.1855C5.27344 5.2984 5.41016 5.35485 5.57422 5.35485H6.91406C7.26042 5.35485 7.46094 5.5148 7.51562 5.83469L8.85547 13.0605C8.96484 13.4557 9.17904 13.7756 9.49805 14.0202C9.81706 14.2648 10.168 14.3871 10.5508 14.3871H16.0742C16.2565 14.3871 16.4023 14.3307 16.5117 14.2178C16.6211 14.1049 16.6758 13.9637 16.6758 13.7944C16.6758 13.3804 16.4753 13.1734 16.0742 13.1734H10.5508C10.2956 13.1734 10.1133 13.0605 10.0039 12.8347L9.94922 12.5807H15.8008C16.1654 12.5807 16.498 12.4678 16.7988 12.242C17.0996 12.0161 17.3047 11.7245 17.4141 11.367L19 7.89518V7.75405C19 7.24598 18.8314 6.81789 18.4941 6.46977C18.1569 6.12165 17.7422 5.9476 17.25 5.9476ZM16.375 10.8871V10.9436C16.3203 11.2258 16.1289 11.367 15.8008 11.367H9.73047L8.96484 7.1613H17.25C17.5781 7.1613 17.7695 7.32125 17.8242 7.64114L16.375 10.8871ZM12 16.1936C12 16.5323 11.8861 16.8192 11.6582 17.0544C11.4303 17.2897 11.1523 17.4073 10.8242 17.4073C10.5143 17.4073 10.2454 17.2897 10.0176 17.0544C9.78971 16.8192 9.67578 16.5323 9.67578 16.1936C9.67578 15.8549 9.78971 15.5679 10.0176 15.3327C10.2454 15.0975 10.5143 14.9799 10.8242 14.9799C11.1523 14.9799 11.4303 15.0975 11.6582 15.3327C11.8861 15.5679 12 15.8549 12 16.1936ZM16.6758 16.1936C16.6758 16.5323 16.5618 16.8192 16.334 17.0544C16.1061 17.2897 15.8281 17.4073 15.5 17.4073C15.1719 17.4073 14.8939 17.2897 14.666 17.0544C14.4382 16.8192 14.3242 16.5323 14.3242 16.1936C14.3242 15.8549 14.4382 15.5679 14.666 15.3327C14.8939 15.0975 15.1719 14.9799 15.5 14.9799C15.8281 14.9799 16.1061 15.0975 16.334 15.3327C16.5618 15.5679 16.6758 15.8549 16.6758 16.1936Z" fill="white"/>
<defs>
<filter id="filter0_d" x="0" y="0" width="24" height="24" filterUnits="userSpaceOnUse" color-interpolation-filters="sRGB">
<feFlood flood-opacity="0" result="BackgroundImageFix"/>
<feColorMatrix in="SourceAlpha" type="matrix" values="0 0 0 0 0 0 0 0 0 0 0 0 0 0 0 0 0 0 127 0"/>
<feOffset dy="2"/>
<feGaussianBlur stdDeviation="1"/>
<feColorMatrix type="matrix" values="0 0 0 0 0 0 0 0 0 0 0 0 0 0 0 0 0 0 0.5 0"/>
<feBlend mode="normal" in2="BackgroundImageFix" result="effect1_dropShadow"/>
<feBlend mode="normal" in="SourceGraphic" in2="effect1_dropShadow" result="shape"/>
</filter>
</defs>
</svg>
